/* XPM */
static char *wall_641722094175[] = {
/* columns rows colors chars-per-pixel */
"64 64 93 2 ",
"   c #11100C",
".  c #161511",
"X  c #1C1A16",
"o  c #1D1D19",
"O  c #211E1A",
"+  c #1F211A",
"@  c #23231D",
"#  c #25281F",
"$  c #252521",
"%  c #2A2723",
"&  c #272921",
"*  c #2A2B25",
"=  c #2D2E28",
"-  c #312D29",
";  c #2D3027",
":  c #2F3129",
">  c #33342C",
",  c #36392E",
"<  c #393D2F",
"1  c #363531",
"2  c #393632",
"3  c #373931",
"4  c #3B3C34",
"5  c #3D3D39",
"6  c #413E3A",
"7  c #3E4135",
"8  c #3F4239",
"9  c #404436",
"0  c #43453B",
"q  c #45493D",
"w  c #494D3E",
"e  c #464541",
"r  c #494642",
"t  c #464B41",
"y  c #4B4C43",
"u  c #4E4D49",
"i  c #514E4A",
"p  c #4D5144",
"a  c #4F5249",
"s  c #515546",
"d  c #53534C",
"f  c #58534F",
"g  c #56594D",
"h  c #595C4E",
"j  c #565551",
"k  c #595652",
"l  c #575951",
"z  c #5B5B55",
"x  c #5E5D59",
"c  c #605B57",
"v  c #615E5A",
"b  c #5E6155",
"n  c #5F6159",
"m  c #63625D",
"M  c #68635F",
"N  c #65685F",
"B  c #666561",
"V  c #696662",
"C  c #676961",
"Z  c #6B6A65",
"A  c #6E6D69",
"S  c #706B67",
"D  c #716E6A",
"F  c #6D7067",
"G  c #6F716A",
"H  c #73726D",
"J  c #78736F",
"K  c #767571",
"L  c #797672",
"P  c #767872",
"I  c #7B7A75",
"U  c #7E7D79",
"Y  c #807B77",
"T  c #817E7A",
"R  c #7E817A",
"E  c #83827D",
"W  c #88837F",
"Q  c #858581",
"!  c #888682",
"~  c #868982",
"^  c #8B8A85",
"/  c #8D8D89",
"(  c #918E8A",
")  c #8D9089",
"_  c #92918B",
"`  c #959490",
"'  c #9C9793",
"]  c #9B9893",
"[  c #A39F9C",
"{  c #A3A29E",
"}  c #A6A5A1",
"|  c #AAA5A1",
" . c #B6B3AE",
/* pixels */
"@ % % O O O O O O % O O O O O X . . $   @ o o o $ . o @ $ % % $ O O O O X O O O O O O O @ O O O O O O O $ $ o $ @ @ $ $ @ = $ o ",
"1 2 2 1 2 - - 5 2 - % - 2 - % % O O = $ 1 1 1 5 5 1 = 5 5 5 5 = = = 1 - % % - % % % % - 6 6 2 6 2 6 2 > 5 e 2 2 5 2 5 5 5 5 e 5 ",
"i f f u u r r u r 2 2 r r 2 2 2 1 1 1 5 u 5 u j j e r i u u e 1 5 2 6 5 - - 1 2 2 6 6 6 w i 6 6 2 j i 0 e e e j j j z x j j x x ",
"c M v c f u u k r 6 r r r r 6 2 u u 5 e j j x B j j i x j u e e e 5 6 e 6 - 2 2 6 w r y f f r 6 r v v r u u k B B j x B B x B Z ",
"f v v v v f f x r r r i r i r 2 u z e j B Z A B x j j x u e e e r 6 6 r 6 2 6 1 6 i i i c c i w i z i e k B x x B j j B B B Z A ",
"v v v M v k i c i i f i r f f 2 j B j B A K A x x j u j e e e e f r r r r 6 6 6 y h k f f c i 0 6 i i i x x j x B x x A Z Z A K ",
"M V V V V k i c i r f i r i i 2 j A z A A B B j x j u u u u j u k f k f i f i r f M v f i f i 6 e j B B B x x K A B V A A A K K ",
"V V V S S c k c f 6 r f r r i 2 j B u A B x x x x u u j j x B x c c v c f k c f f Z M f f c f i e j k x B z x U A A A K A A K K ",
"i M M c V r r f i 6 f i r r i 2 u j 5 x z j j j j j u j j j x j i f f i y f k i i m f i y y i r e e e j x u j B x A x B j j x x ",
"K Y Y J Q M c V M f D S S S D f B K x K K B B x B B x Z A B K V v v m c h M S M v S c z m M c r j x B A Z x x K K I K E B A H K ",
"Y Y Q D Q V M A c f M S S S D u B U B A A Z x j z x B A Z Z A V M v c z f m M v m Z c c S Z v w u B B B B z j V K D A K A B H I ",
"Y Y Y D L M M D S c J J L Y Y f B Q B B K D x x B B B K A Z K Z V m v z f m M m f M M m M M v s j A Z B A x j Z A V m H A B K E ",
"D K Y A D M V D c c D D S D J f B ^ Z B K K Z B B Z A K K A U K m f f f f m S Z c G Z Z G S S m x K A B K B x D U B x A A B U Q ",
"D D K V V c V D V M J D D L Q V x U B B A A Z B z x B A A A U I v f i i i z M v m S M M J J D m B A x x D Z B K U A B B Z m K K ",
"K D Y D D M J D V M K D D J Q S B U A K A K A B B Z A K K K Q I D M c h f z v v h S M Z J J D M A Z Z A K K A U Q K K K K A Q U ",
"J D J V M M D S D M K S S J W M Z Q K U K A A B A A A I I K U K H m c z h c v v f J J L L H J G A A A U Q K K Q U U U U K A Q Q ",
"K D A V j f x V v v M M c D Y c S ^ A D U Z A V Z B Z Z A K U K A n x A N x C z z M V k i J V S A K K H L P K I P U U U U A K Q ",
"c M M x i r u x k k V S c v M k i v e i A V m i v x v B B A K A n g d n x x B l e f k f i V k k j x x B B m x m B B z x x x u x ",
"D Y Y D D V B K L S J J M S J L S T D K Q U U A K H K U U Q / Q U H F P H I W H Z A L I Y W L J H I I U Q U H K U U K A U K A K ",
"V K A x B c f A J M c v v S J D D Q U L U I I H V V Z K K I E Q P K A G A P W D K D L Y W W L J H I U U U I A H D I K K A A A A ",
"D Q K V D B x A S D J D J Y Y S I E K A I U U H K A K K K K T U I P K P H I ^ P T U L T W T I I I U T U T U K L U Q Q K A A K A ",
"K U K D K D x c S W ^ T Y W ( ^ / ` Q I A K K H U K U K A A K K G G A K H P ~ P T U Y I T D I I K I K K L K H K Q A A K A K A B ",
"K K D K K D V c Y ( ' ( ( ' |  .[ } } Q D I Q U ^ E Q Q I K U Q P P P E P P W U U W ! E Q S T Y P U U U U U I U U B B A A K K A ",
"Y K K K K Y K M S Y Y Y W W W ( ^ Q U A A Q Q U Q E Q Q U K T Q E R R ^ P A P J Z L T L L c K D K I P U U U P U U A A U A A K A ",
"U Y K K / K Y D M M M x i i u 6 M A v v D U ^ Q U ^ U T Q I I Q E E R E R G R ~ U T J V T S J I A U U K U U K K Q U K K A A K A ",
"Q Q Y Q / Q Q T Y Y Y K M M M f L Q K K T ! ` / Q ` ^ / / Q Q Q ~ ^ E ~ R P E ! A L Y K W D Y T U / / Q Q Q U U U U U U K K A A ",
"x M x M D M V M c c v c f f k i j m k j x x A V D A A K A A A x F P K H G C H H V Y Y D L M D J x A A B B x x j B B B B B x x j ",
"U Q U U Q D Y Y D A A A S J J S v A m m Z A K D A Z Z A B B V j P ~ ~ ~ E E / ! Q / / Y W J T I K U Q K K K K K U Q Q / Q U Q Q ",
"/ / / Q / Y W T T J J J L Y K M Z K Z Z L U T U E E Q Q U U Q D P E E W ~ ~ / ! Q / Q W / / ` K A U U K U U K U U Q Q Q Q Q Q / ",
"Q / Q T / K W W Q Y K Y Y Y J M D K Z H T Q ! Q Q Q U U U T Q K R ~ W ! ~ ~ / W U U Y Y Q U Y j A K K D K K K U U Q Q Q U Q Q Q ",
"Q Q T Y Q K Q W W L Y T T W Y S D K A H T E ! Q Q Q K K U ! ! U P R U E E I E I Y U Q T W Y K u A K K D K U K U Q Q Q Q Q Q Q Q ",
"T Q Q Y Q Y Q ! W Y T W T T Y K D I K I Q Q / / / / A A Q ( / Q P R P R E P R I V J T Y W T Q B B K K A A K U U U K U K U Q U Q ",
"Q Q Q Q Q U U Q Q Q U U Q Q U K A K K U / / / / / / / / / Q Q Q P E I I T Y I H N J J Y J I T D S J Z H I J I E E L Y L J L T W ",
"x A U U Q U K A K K U U Q Q Q U U U U U Q / Q / / ` / ) / / / Q I ! T Y W T W L N P Y T L I T S S J Z S J S J J E Y Y S M M S E ",
"u B K U K K A A A A K Q Q ~ Q K U U U U Q Q Q / Q Q Q Q Q Q Q U H T Y Y Y U Y L N G R R J J T D M H V S D J I E E Y H S v v N J ",
"u x B x x j j u j x B B B B j u u x B B A B x x K K H K K I K A z D Z Z D S S V N F F R V S J V i z f z m m M M N M b b v v c h ",
"K U U A A K K K K A A K A B B x A U / / ` / Q Q / ~ Q ^ / / Q Q J ! W Q ! ! ^ W E W W W W W W R M J D J J H J H J J H J J J J J ",
"U U K K U K K U K B B A A K K A A U Q U Q U K U Q Q E Q Q Q Q Q J ! T Q ! ! ! W R W W W W W E b c G S D H D J H G L L G M M D E ",
"A K K U U K K U K B B K A P R P U / / Q Q / Q U Q Q Q Q Q R Q R I ^ Q ^ ( / ( W R W W W W W R b d N m N Z A J P E E L Z N Z J E ",
"K K U U Q K K Q / A A U K Q ~ P U Q Q Q Q Q Q U Q Q Q U Q R R Q U ( ! ^ ( ( / W W ` ` ] W W R R z S Z V S H I I Y G M c m N Z m ",
"K U U P Q Q Q Q ~ R F R P R ~ R U / Q / / U K U Q Q Q R Q Q Q Q Y / ^ W W ] W W W ] ] W W W R R P H Z C C H P U Y H C Z Z G H G ",
"K K K U Q Q Q Q ~ R P ~ Q R ~ R U / / Q / U K Q Q Q R R U R Q R I E E U W W W ` ] W W E R R R R H H K H K H H H Z Z A H I E U I ",
"Q Q U Q ) ) Q Q ~ R R ~ ~ R ~ R U / / Q U P K Q R E R R R Q Q R P E E P E W W ) W ] ] W R R R R A A A N x n C H N C F H P R E W ",
"U U K U ) ~ R Q ~ R R ~ ~ ~ ~ ~ K Q K A B B K K P P P P P U P R F P R J E E E E R W R R R R R C n n m z d j B H C Z A A G P P R ",
"n n l n B B B n a g a a a l l l n n l a e a l l a a d l b b b n s h h h m m m h R h w s s h h w e a j d u u d x u j x B m b x x ",
"C C n C A B n n N R N n N N N C C N N N B C C l l g l b b n N C h b b c m m h c h R R h h b b b n m m x l l n C l n C A C A G H ",
"N n l l n a t a l n l a l l a l l t t l a a a t q q t p t a g h q w q 9 w w w s h h s w p s s h d a e 8 5 0 u d e u j a a g N G ",
"a a a a a t t a a l a t l a a a t 3 5 t 8 8 t 5 t q q t t p s h 9 q 9 6 9 q 9 w s s w w p w p s e e e 8 0 0 0 8 4 e d d d a z m ",
"a a a a p s s s s s w w w w p p 9 9 7 7 7 7 < < 9 9 w w w w w w 7 9 7 9 q q t 9 s w 8 8 p s t w 8 8 3 8 s w 7 w q 7 q w s p p d ",
"a a a t s s g s p t 9 9 w w w s 7 7 9 9 9 7 7 7 < 9 9 w w w w w 9 9 9 t q t t t 7 8 8 p s s p t 8 0 8 8 9 9 9 7 q q w h h p p d ",
"a t t t p s s s p q 7 7 9 q w p 7 < ; 7 7 7 < 7 7 9 w w w g s w 7 9 t 9 9 9 t t 7 7 t t t p t t q t p t 7 w w 7 7 7 q w w q p s ",
"t t t t s s s s p q 7 7 9 w p w 7 7 7 7 7 9 9 9 7 9 w w w s g w 7 9 t t 9 9 t t s s s p p p p t q q s p 7 7 w 7 q w w w p w p g ",
"p t t s s s p p 7 7 7 7 q w w w , 7 , 7 7 7 7 7 9 w s s s h h g 9 t t t 8 8 t t p p p t t t t 8 w q s b w w s s s s s w p w w w ",
"s a p p s p q t 7 7 7 7 q 9 9 7 , , ; 7 ; , ; , < 9 9 7 9 w w 7 < < 7 < 7 7 7 8 7 8 8 8 q t 8 7 7 7 7 w w 7 w w w w w w s s w w ",
"a p t t t t 7 7 q q t w q 7 7 < 7 7 8 8 7 7 8 7 9 w s s s h h s ; ; ; , 7 , , 7 7 t p p p p p 0 7 w s h h h s h s s h h h b b N ",
"g t t t t 9 7 8 7 q p p w q q 9 7 7 7 7 7 7 3 7 < 9 w 9 w w s q < , < 7 7 7 7 7 7 t t 8 7 0 q 8 7 w w w s h s w b b h s w w h b ",
"a a t t t q q 8 q 7 7 p p t 8 s 7 3 3 , 7 , 3 3 7 t 8 q t l a a , < 3 3 t 8 3 3 : 8 8 5 3 8 8 3 w w w w t s g l h s w s h s w s ",
"8 8 t q q q 8 7 7 7 7 t t 7 8 8 7 7 7 3 7 7 7 7 7 8 t t t a l a , 7 3 3 t 8 8 8 5 8 8 7 3 8 8 3 7 7 7 8 t p a a h h s s h w w w ",
"8 8 8 q q q 7 7 7 7 7 p s 8 8 p 7 3 3 7 3 7 7 7 7 7 t t t a a a , 8 8 8 8 8 8 t 8 5 5 3 3 4 8 8 7 7 7 7 8 8 t t s w w w w w 9 w ",
"8 8 8 7 8 7 7 7 7 7 7 8 w 8 8 8 7 7 3 7 7 3 3 3 7 8 t t t t t t , 3 , 3 3 8 3 8 5 3 3 5 3 > 3 8 7 7 7 7 8 8 e 8 w 9 w w s w 7 9 ",
"8 7 7 : 7 : 7 7 : 7 7 7 8 7 7 7 7 7 : 7 3 3 : 7 7 7 8 t 8 8 t 8 : 3 : : 8 8 : 3 1 : 1 1 : & = 1 7 ; ; , 1 1 3 3 8 8 7 8 w 7 , , ",
"8 7 ; ; ; ; ; : : ; ; 7 7 7 ; ; 7 7 : : : 7 : : : 7 7 8 8 5 3 3 : : : : 3 : ; & * * = : = = = 5 7 7 7 7 8 8 8 8 8 8 8 5 9 7 ; ; ",
"7 ; ; & ; ; ; ; ; ; ; ; ; ; ; ; : : ; & & ; ; : ; ; ; ; : 3 : : = = & & : & + # + & & & = = : 3 0 t 8 8 t t e t e e 5 5 8 3 : : ",
"+ + + + + + # # # # + + + # # ; & # + + + # & * # + + + & ; : = + $ + + + + + + $ * & + o o + # @ + + # + $ + + + $ + o @ $ + + "
};
